<svg width="663" height="447" viewBox="0 0 663 447" fill="none" xmlns="http://www.w3.org/2000/svg">
<path d="M6.3 391.896C10.74 391.896 13.62 390.036 14.94 386.316C16.38 382.596 17.1 376.476 17.1 367.956V291.276C17.1 282.756 16.38 276.636 14.94 272.916C13.62 269.196 10.74 267.336 6.3 267.336V266.436H54.9C69.54 266.436 80.1 268.296 86.58 272.016C93.18 275.616 96.48 282.036 96.48 291.276C96.48 297.516 94.14 302.856 89.46 307.296C84.9 311.736 78.24 314.676 69.48 316.116C80.16 317.796 88.5 321.996 94.5 328.716C100.5 335.316 103.5 344.556 103.5 356.436C103.5 368.916 98.88 378.396 89.64 384.876C80.4 391.356 66.72 394.596 48.6 394.596C44.64 394.596 40.44 394.296 36 393.696C35.04 393.576 33.12 393.396 30.24 393.156C27.48 392.916 24.6 392.796 21.6 392.796H6.3V391.896ZM27.9 370.116C27.9 378.036 30.12 383.796 34.56 387.396C39 390.996 43.86 392.796 49.14 392.796C62.46 392.796 72.42 389.676 79.02 383.436C85.74 377.196 89.1 368.196 89.1 356.436C89.1 343.236 85.98 333.336 79.74 326.736C73.5 320.136 65.64 316.836 56.16 316.836C50.16 316.836 44.52 315.456 39.24 312.696C33.96 309.936 30.18 304.656 27.9 296.856V370.116ZM27.9 282.456C27.9 304.176 37.5 315.036 56.7 315.036H58.86C66.54 315.036 72.3 312.756 76.14 308.196C80.1 303.516 82.08 297.876 82.08 291.276C82.08 283.236 79.8 277.416 75.24 273.816C70.8 270.096 63.84 268.236 54.36 268.236H27.9V282.456ZM114.23 391.896C118.67 391.896 121.55 390.036 122.87 386.316C124.31 382.596 125.03 376.476 125.03 367.956V291.276C125.03 282.756 124.31 276.636 122.87 272.916C121.55 269.196 118.67 267.336 114.23 267.336V266.436H146.63V267.336C142.19 267.336 139.25 269.196 137.81 272.916C136.49 276.636 135.83 282.756 135.83 291.276V367.956C135.83 376.476 136.49 382.596 137.81 386.316C139.25 390.036 142.19 391.896 146.63 391.896V392.796H114.23V391.896ZM157.472 391.896C161.912 391.896 164.792 390.036 166.112 386.316C167.552 382.596 168.272 376.476 168.272 367.956V291.276C168.272 282.756 167.552 276.636 166.112 272.916C164.792 269.196 161.912 267.336 157.472 267.336V266.436H189.872V267.336C185.432 267.336 182.492 269.196 181.052 272.916C179.732 276.636 179.072 282.756 179.072 291.276V367.956C179.072 374.676 179.672 379.716 180.872 383.076C182.192 386.316 184.052 388.476 186.452 389.556C188.972 390.516 192.512 390.996 197.072 390.996H229.292C233.852 390.996 237.332 390.516 239.732 389.556C242.252 388.476 244.112 386.316 245.312 383.076C246.632 379.716 247.292 374.676 247.292 367.956H248.192V392.796H157.472V391.896ZM348.124 329.616C348.124 316.056 346.444 304.716 343.084 295.596C339.844 286.356 335.344 279.516 329.584 275.076C323.824 270.516 317.224 268.236 309.784 268.236H304.564C297.124 268.236 290.524 270.516 284.764 275.076C279.004 279.516 274.444 286.356 271.084 295.596C267.844 304.716 266.224 316.056 266.224 329.616C266.224 343.176 267.844 354.576 271.084 363.816C274.444 372.936 279.004 379.776 284.764 384.336C290.524 388.776 297.124 390.996 304.564 390.996H309.784C317.224 390.996 323.824 388.776 329.584 384.336C335.344 379.776 339.844 372.936 343.084 363.816C346.444 354.576 348.124 343.176 348.124 329.616ZM251.824 329.616C251.824 315.576 254.044 303.876 258.484 294.516C263.044 285.036 269.284 278.016 277.204 273.456C285.244 268.776 294.544 266.436 305.104 266.436H309.244C319.804 266.436 329.044 268.776 336.964 273.456C345.004 278.016 351.244 285.036 355.684 294.516C360.244 303.876 362.524 315.576 362.524 329.616C362.524 343.656 360.244 355.416 355.684 364.896C351.244 374.256 345.004 381.276 336.964 385.956C329.044 390.516 319.804 392.796 309.244 392.796H305.104C294.544 392.796 285.244 390.516 277.204 385.956C269.284 381.276 263.044 374.256 258.484 364.896C254.044 355.416 251.824 343.656 251.824 329.616ZM369.816 391.896C374.256 391.896 377.136 390.036 378.456 386.316C379.896 382.596 380.616 376.476 380.616 367.956V291.276C380.616 282.756 379.896 276.636 378.456 272.916C377.136 269.196 374.256 267.336 369.816 267.336V266.436H391.416H413.736C429.936 266.436 442.836 271.836 452.436 282.636C462.156 293.436 467.016 309.516 467.016 330.876C467.016 352.116 462.396 367.776 453.156 377.856C444.036 387.816 430.656 392.796 413.016 392.796H369.816V391.896ZM412.476 390.996C425.316 390.996 435.216 386.136 442.176 376.416C449.136 366.576 452.616 351.396 452.616 330.876C452.616 316.836 450.936 305.136 447.576 295.776C444.336 286.416 439.836 279.516 434.076 275.076C428.316 270.516 421.716 268.236 414.276 268.236H391.416V390.996H412.476ZM474.23 391.896C478.67 391.896 481.55 390.036 482.87 386.316C484.31 382.596 485.03 376.476 485.03 367.956V291.276C485.03 282.756 484.31 276.636 482.87 272.916C481.55 269.196 478.67 267.336 474.23 267.336V266.436H506.63V267.336C502.19 267.336 499.25 269.196 497.81 272.916C496.49 276.636 495.83 282.756 495.83 291.276V367.956C495.83 376.476 496.49 382.596 497.81 386.316C499.25 390.036 502.19 391.896 506.63 391.896V392.796H474.23V391.896ZM516.53 391.896C520.97 391.896 523.97 390.036 525.53 386.316C527.21 382.596 528.23 376.476 528.59 367.956L533.63 271.836C530.63 268.836 527.15 267.336 523.19 267.336V266.436H545.87L588.35 356.076L630.65 266.436H652.61V267.336C648.77 267.336 646.13 268.776 644.69 271.656C643.25 274.536 642.53 279.156 642.53 285.516L642.71 291.276L646.85 367.956C647.21 376.476 648.17 382.596 649.73 386.316C651.41 390.036 654.47 391.896 658.91 391.896V392.796H626.33V391.896C630.41 391.896 633.11 390.276 634.43 387.036C635.87 383.796 636.47 378.576 636.23 371.376L630.83 270.216L589.25 358.236L593.93 367.956C597.89 376.476 601.43 382.596 604.55 386.316C607.67 390.036 611.45 391.896 615.89 391.896V392.796H593.75L583.31 370.656L572.87 392.796H560.63V391.896C564.95 391.896 568.67 390.096 571.79 386.496C574.91 382.776 578.39 376.776 582.23 368.496L545.69 291.276C541.85 282.996 538.43 277.116 535.43 273.636L530.21 371.376C529.97 378.576 530.51 383.796 531.83 387.036C533.27 390.276 536.03 391.896 540.11 391.896V392.796H516.53V391.896Z" fill="white"/>
<path d="M383.777 213.765V237.899H370.013V213.765C370.013 209.964 373.094 206.883 376.895 206.883C380.696 206.883 383.777 209.964 383.777 213.765Z" stroke="white" stroke-width="2"/>
<path d="M346.878 238.106V221.469M346.878 221.469V216.167H363.917V221.469H346.878Z" stroke="white" stroke-width="2"/>
<path d="M295.877 216.223H319.284V238.106" stroke="white" stroke-width="2"/>
<path d="M319.283 220.36H295.659" stroke="white" stroke-width="2"/>
<path d="M412.631 182.109L424.867 182.109" stroke="white" stroke-width="2"/>
<path d="M410.816 186.734L426.504 186.734" stroke="white" stroke-width="2"/>
<path d="M428.498 198.585V186.724H426.562V182.125H424.867V73.9243" stroke="white" stroke-width="2"/>
<path d="M409 190.71V186.724H410.937V182.125H412.631V71.3044" stroke="white" stroke-width="2"/>
<path d="M383.499 184.927V181.78H385.859V67.7146" stroke="white" stroke-width="2"/>
<path d="M401.39 184.927V181.78H399.03V69.1846" stroke="white" stroke-width="2"/>
<path d="M386.23 181.773L398.432 181.773" stroke="white" stroke-width="2"/>
<path d="M348.003 180.339H359.671" stroke="white" stroke-width="2"/>
<path d="M346.042 184.515L361.81 184.515" stroke="white" stroke-width="2"/>
<path d="M343.351 186.882V184.508H346.011V180.329H347.625V65.7429" stroke="white" stroke-width="2"/>
<path d="M363.947 187.376V184.508H361.288V180.329H359.673V65.7429" stroke="white" stroke-width="2"/>
<path d="M380.331 187.801H363.126V194.883" stroke="white" stroke-width="2"/>
<path d="M363.126 191.342H385.506" stroke="white" stroke-width="2"/>
<path d="M319.905 186.978H343.446V190.423H347.58V195.016" stroke="white" stroke-width="2"/>
<path d="M319.754 190.432H344.099" stroke="white" stroke-width="2"/>
<path d="M273.906 194.981V191.635H276.615V187.652H300.515" stroke="white" stroke-width="2"/>
<path d="M276.934 191.629H300.515" stroke="white" stroke-width="2"/>
<path d="M260.059 195.4H388.503" stroke="white" stroke-width="2"/>
<path d="M300.544 194.938V183.336H302.575V180.193H304.605V66.4399" stroke="white" stroke-width="2"/>
<path d="M319.754 194.938V183.336H317.724V180.193H315.693V66.4399" stroke="white" stroke-width="2"/>
<path d="M413.66 214.457C412.559 211.828 408.853 207.008 402.835 208.77C402.835 201.724 402.835 190.422 402.835 185.652L380.635 185.652V188.771H385.772V193.175H388.341V196.103" stroke="white" stroke-width="2"/>
<path d="M259.946 196.871H245.34L230.735 205.883V186.927H232.914V182.325H234.585V73.5562" stroke="white" stroke-width="2"/>
<path d="M251.466 196.907V187.001H249.287V182.288H247.616V71.2085" stroke="white" stroke-width="2"/>
<path d="M164.76 198.461V233.146" stroke="white" stroke-width="2"/>
<path d="M466.194 198.461V233.146" stroke="white" stroke-width="2"/>
<path d="M191.681 198.461V233.146" stroke="white" stroke-width="2"/>
<path d="M493.116 198.461V233.146" stroke="white" stroke-width="2"/>
<path d="M164.939 204.689H191.591" stroke="white" stroke-width="2"/>
<path d="M466.374 204.689H493.026" stroke="white" stroke-width="2"/>
<path d="M280.34 19.0278C295.579 16.3887 336.427 12.6939 377.904 19.0278" stroke="white" stroke-width="2"/>
<path d="M280.34 11.1104C295.579 8.4712 336.427 4.77637 377.904 11.1104" stroke="white" stroke-width="2"/>
<path d="M280.199 23.8948V19.1742H273.118V11.6213H280.199V7.37276L329.529 1" stroke="white" stroke-width="2"/>
<path d="M377.844 23.8948V19.1742H384.925V11.6213H377.844V7.37276L328.514 1" stroke="white" stroke-width="2"/>
<path d="M182.149 13.6003V1.09717H197.614V13.6003" stroke="white" stroke-width="2"/>
<path d="M475.212 13.6003V1.09717H459.748V13.6003" stroke="white" stroke-width="2"/>
<path d="M131.85 27.5066L158.104 19.3989" stroke="white" stroke-width="2"/>
<path d="M525.511 27.5066L499.258 19.3989" stroke="white" stroke-width="2"/>
<path d="M27.2236 198.255H230.878" stroke="white" stroke-width="2"/>
<path d="M45.3362 75.8855V197.818" stroke="white" stroke-width="2"/>
<path d="M611.88 75.2314V198.653" stroke="white" stroke-width="2"/>
<path d="M628.776 198.653H421.604L408.748 190.939H402.871" stroke="white" stroke-width="2"/>
<path d="M77.5058 31.4532L72.2678 27.5281H250.072" stroke="white" stroke-width="2"/>
<path d="M586.891 31.4532L592.129 27.5281H414.325" stroke="white" stroke-width="2"/>
<path d="M27.163 232.994V85.6145L25.5254 84.2109V78.8303L19.677 76.257V71.5783H28.4599V64.9168L19.677 59.4136V56.3725H27.163V44.9096H29.5023V36.7219H27.163V31.5753H223.768C262.925 24.2924 359.9 14.0965 434.547 31.5753C508.816 31.5753 595.025 31.5753 628.846 31.5753" stroke="white" stroke-width="2"/>
<path d="M30.2031 42.5377H224.997C263.792 35.2548 359.873 25.0589 433.833 42.5377C507.417 42.5377 592.832 42.5377 626.341 42.5377" stroke="white" stroke-width="2"/>
<path d="M27.9934 54.0628H224.389C263.504 46.78 360.375 36.584 434.944 54.0628C509.133 54.0628 595.25 54.0628 629.035 54.0628" stroke="white" stroke-width="2"/>
<path d="M24.9736 62.2801H222.356C261.667 54.9973 359.026 44.8013 433.968 62.2801C508.531 62.2801 595.08 62.2801 629.035 62.2801" stroke="white" stroke-width="2"/>
<path d="M32.8098 62.1528L32.8098 75.2381L223.321 75.2382C261.739 67.9553 356.887 57.7594 430.128 75.2382C502.997 75.2382 587.582 75.2382 620.766 75.2382V62.0793" stroke="white" stroke-width="2"/>
<path d="M628.681 31.5752V36.7218H626.341V44.9095H628.681V56.3724H636.167V59.4136L626.341 64.7941V71.5782H636.167V76.257L630.318 78.8302V84.2108L628.681 85.6144V232.994" stroke="white" stroke-width="2"/>
<path d="M159.266 251.535H515.095" stroke="white" stroke-width="2"/>
<path d="M2.09497 233.529H223.814V230.984C223.814 223.383 229.976 217.221 237.576 217.221V217.221C245.177 217.221 251.338 223.383 251.338 230.984V238.463H406.367V230.471C406.367 223.154 412.299 217.221 419.617 217.221V217.221C426.935 217.221 432.867 223.154 432.867 230.471V233.529H660.905" stroke="white" stroke-width="2"/>
<path d="M389.522 230.383L420.602 210.958L403.674 196.528" stroke="white" stroke-width="2"/>
<path d="M259.76 230.031V185.218H262.387V180.099H264.232V69.4565" stroke="white" stroke-width="2"/>
<path d="M280.234 187.753V185.188H277.608V180.009H275.763V68.0688" stroke="white" stroke-width="2"/>
<path d="M264.231 180.123H275.763" stroke="white" stroke-width="2"/>
<path d="M304.605 180.185H316.137" stroke="white" stroke-width="2"/>
<path d="M302.575 183.331L318.207 183.331" stroke="white" stroke-width="2"/>
<path d="M261.996 185.206L277.642 185.206" stroke="white" stroke-width="2"/>
<path d="M233.277 187.007L249.122 187.007" stroke="white" stroke-width="2"/>
<path d="M222.433 74.8744V67.8999L224.318 66.3919V62.2449" stroke="white" stroke-width="2"/>
<path d="M435.014 74.8744V67.8999L433.129 66.3919V62.2449" stroke="white" stroke-width="2"/>
<path d="M27.5813 212.431H163.834" stroke="white" stroke-width="2"/>
<path d="M191.681 212.431H216.047L227.981 220.885" stroke="white" stroke-width="2"/>
<path d="M251.466 230.57H271.823V238.11" stroke="white" stroke-width="2"/>
<path d="M384.166 237.733V230.193H406.031" stroke="white" stroke-width="2"/>
<path d="M429.028 221.145L441.845 212.474H465.596" stroke="white" stroke-width="2"/>
<path d="M493.116 212.851H628.832" stroke="white" stroke-width="2"/>
<rect x="158.472" y="14.2568" width="114.061" height="4.50491" stroke="white" stroke-width="2"/>
<rect x="-1" y="1" width="114.061" height="4.50491" transform="matrix(-1 0 0 1 497.89 13.2568)" stroke="white" stroke-width="2"/>
<path d="M260.385 200.393H402.583" stroke="white" stroke-width="2"/>
<rect x="75.4431" y="86.1067" width="17.0476" height="31.4305" stroke="white" stroke-width="2"/>
<rect x="443.567" y="86.1067" width="17.0476" height="31.4305" stroke="white" stroke-width="2"/>
<path d="M92.4907 158.77V186.753H75.4431V158.77C75.4431 154.063 79.2594 150.247 83.9669 150.247C88.6745 150.247 92.4907 154.063 92.4907 158.77Z" stroke="white" stroke-width="2"/>
<path d="M460.615 158.77V186.753H443.567V158.77C443.567 154.063 447.384 150.247 452.091 150.247C456.799 150.247 460.615 154.063 460.615 158.77Z" stroke="white" stroke-width="2"/>
<path d="M152.067 158.77V186.753H135.02V158.77C135.02 154.063 138.836 150.247 143.543 150.247C148.251 150.247 152.067 154.063 152.067 158.77Z" stroke="white" stroke-width="2"/>
<path d="M520.192 158.77V186.753H503.144V158.77C503.144 154.063 506.961 150.247 511.668 150.247C516.376 150.247 520.192 154.063 520.192 158.77Z" stroke="white" stroke-width="2"/>
<path d="M213.077 158.77V186.753H196.03V158.77C196.03 154.063 199.846 150.247 204.554 150.247C209.261 150.247 213.077 154.063 213.077 158.77Z" stroke="white" stroke-width="2"/>
<path d="M294.981 215.407V237.899H277.934V215.407C277.934 210.699 281.75 206.883 286.458 206.883C291.165 206.883 294.981 210.699 294.981 215.407Z" stroke="white" stroke-width="2"/>
<path d="M340.451 215.407V237.899H323.403V215.407C323.403 210.699 327.219 206.883 331.927 206.883C336.634 206.883 340.451 210.699 340.451 215.407Z" stroke="white" stroke-width="2"/>
<path d="M581.202 158.77V186.753H564.154V158.77C564.154 154.063 567.97 150.247 572.678 150.247C577.385 150.247 581.202 154.063 581.202 158.77Z" stroke="white" stroke-width="2"/>
<rect x="135.02" y="86.1067" width="17.0476" height="31.4305" stroke="white" stroke-width="2"/>
<rect x="503.144" y="86.1067" width="17.0476" height="31.4305" stroke="white" stroke-width="2"/>
<rect x="196.03" y="86.1067" width="17.0476" height="31.4305" stroke="white" stroke-width="2"/>
<rect x="564.154" y="86.1067" width="17.0476" height="31.4305" stroke="white" stroke-width="2"/>
<path d="M70.1518 138.343L83.9668 131.649L97.7818 138.343H70.1518Z" stroke="white" stroke-width="2"/>
<path d="M440.297 138.343L454.112 131.649L467.927 138.343H440.297Z" stroke="white" stroke-width="2"/>
<path d="M189.52 138.343L203.335 131.649L217.15 138.343H189.52Z" stroke="white" stroke-width="2"/>
<path d="M559.665 138.343L573.48 131.649L587.295 138.343H559.665Z" stroke="white" stroke-width="2"/>
<mask id="path-94-inside-1_14_4500" fill="white">
<path d="M527.071 142.278C527.071 138.193 525.448 134.275 522.56 131.386C519.671 128.498 515.753 126.875 511.668 126.875C507.583 126.875 503.665 128.498 500.777 131.386C497.888 134.275 496.265 138.193 496.265 142.278L511.668 142.278H527.071Z"/>
</mask>
<path d="M527.071 142.278C527.071 138.193 525.448 134.275 522.56 131.386C519.671 128.498 515.753 126.875 511.668 126.875C507.583 126.875 503.665 128.498 500.777 131.386C497.888 134.275 496.265 138.193 496.265 142.278L511.668 142.278H527.071Z" stroke="white" stroke-width="4" mask="url(#path-94-inside-1_14_4500)"/>
<mask id="path-95-inside-2_14_4500" fill="white">
<path d="M158.946 142.278C158.946 138.193 157.323 134.275 154.435 131.386C151.546 128.498 147.628 126.875 143.543 126.875C139.458 126.875 135.54 128.498 132.652 131.386C129.763 134.275 128.14 138.193 128.14 142.278L143.543 142.278H158.946Z"/>
</mask>
<path d="M158.946 142.278C158.946 138.193 157.323 134.275 154.435 131.386C151.546 128.498 147.628 126.875 143.543 126.875C139.458 126.875 135.54 128.498 132.652 131.386C129.763 134.275 128.14 138.193 128.14 142.278L143.543 142.278H158.946Z" stroke="white" stroke-width="4" mask="url(#path-95-inside-2_14_4500)"/>
</svg>
